<svg id="Layer_1" data-name="Layer 1" xmlns="http://www.w3.org/2000/svg" viewBox="0 0 380.93 228.38"><defs><style>.cls-1{fill:#e8f0e6;}.cls-2{fill:#d1e0cc;}.cls-3{fill:#bad1b3;}.cls-4,.cls-8{font-size:12px;}.cls-4{font-family:SegoeUI, Segoe UI;}.cls-5{font-family:SegoeUI-Italic, Segoe UI;font-style:italic;}.cls-6,.cls-7{fill:none;}.cls-6{stroke:#000;stroke-linecap:round;stroke-miterlimit:10;stroke-width:0.75px;}.cls-8{font-family:SegoeUI-Bold, Segoe UI;font-weight:700;}</style></defs><title>CombinationsTree</title><rect class="cls-1" y="14.08" width="380.93" height="71.25"/><rect class="cls-2" y="85.33" width="380.93" height="71.25"/><rect class="cls-3" y="156.58" width="380.93" height="71.25"/><text class="cls-4" transform="translate(175.12 10.2)">User <tspan class="cls-5" x="27.07" y="0">i</tspan></text><text class="cls-4" transform="translate(63.26 81.58)">Group 0</text><text class="cls-4" transform="translate(169.38 81.58)">Group 1</text><text class="cls-4" transform="translate(29.32 153.2)">Group 1</text><text class="cls-4" transform="translate(29.32 223.45)">Group 2</text><text class="cls-4" transform="translate(86.19 223.45)">Group 1</text><text class="cls-4" transform="translate(140.94 223.45)">Group 2</text><text class="cls-4" transform="translate(200.07 223.45)">Group 0</text><text class="cls-4" transform="translate(249.44 223.45)">Group 1</text><text class="cls-4" transform="translate(308.51 223.45)">Group 0</text><text class="cls-4" transform="translate(86.19 153.2)">Group 2</text><text class="cls-4" transform="translate(140.94 153.2)">Group 0</text><text class="cls-4" transform="translate(197.82 153.2)">Group 2</text><text class="cls-4" transform="translate(249.44 153.2)">Group 0</text><text class="cls-4" transform="translate(306.32 153.2)">Group 1</text><text class="cls-4" transform="translate(273.38 81.58)">Group 2</text><line class="cls-6" x1="190.47" y1="15.27" x2="89.38" y2="70.08"/><polygon points="89.75 67.67 89.95 69.77 91.6 71.09 86.63 71.58 89.75 67.67"/><line class="cls-6" x1="190.47" y1="15.27" x2="291.55" y2="70.08"/><polygon points="289.33 71.09 290.98 69.77 291.18 67.67 294.31 71.58 289.33 71.09"/><line class="cls-6" x1="190.47" y1="15.27" x2="190.47" y2="68.44"/><polygon points="188.52 66.97 190.47 67.79 192.41 66.97 190.47 71.58 188.52 66.97"/><line class="cls-6" x1="80.31" y1="86.02" x2="53.46" y2="139.52"/><polygon points="52.39 137.34 53.75 138.94 55.86 139.08 52.06 142.33 52.39 137.34"/><line class="cls-6" x1="80.31" y1="86.02" x2="107.15" y2="139.52"/><polygon points="104.75 139.08 106.86 138.94 108.23 137.34 108.56 142.33 104.75 139.08"/><line class="cls-6" x1="190.47" y1="86.02" x2="163.62" y2="139.52"/><polygon points="162.54 137.34 163.91 138.94 166.02 139.08 162.22 142.33 162.54 137.34"/><line class="cls-6" x1="190.47" y1="86.02" x2="217.31" y2="139.52"/><polygon points="214.91 139.08 217.02 138.94 218.39 137.34 218.72 142.33 214.91 139.08"/><line class="cls-6" x1="298.9" y1="86.02" x2="272.05" y2="139.52"/><polygon points="270.98 137.34 272.35 138.94 274.45 139.08 270.65 142.33 270.98 137.34"/><line class="cls-6" x1="298.9" y1="86.02" x2="325.74" y2="139.52"/><polygon points="323.34 139.08 325.45 138.94 326.82 137.34 327.15 142.33 323.34 139.08"/><line class="cls-7" x1="51.56" y1="160.95" x2="51.56" y2="198.2"/><line class="cls-6" x1="50.56" y1="157.95" x2="50.56" y2="211.12"/><polygon points="48.61 209.65 50.56 210.47 52.5 209.65 50.56 214.25 48.61 209.65"/><line class="cls-6" x1="108.31" y1="157.95" x2="108.31" y2="211.12"/><polygon points="106.36 209.65 108.31 210.47 110.25 209.65 108.31 214.25 106.36 209.65"/><line class="cls-6" x1="161.06" y1="157.95" x2="161.06" y2="211.12"/><polygon points="159.11 209.65 161.06 210.47 163 209.65 161.06 214.25 159.11 209.65"/><line class="cls-6" x1="219.06" y1="157.95" x2="219.06" y2="211.12"/><polygon points="217.11 209.65 219.06 210.47 221 209.65 219.06 214.25 217.11 209.65"/><line class="cls-6" x1="270.56" y1="157.95" x2="270.56" y2="211.12"/><polygon points="268.61 209.65 270.56 210.47 272.5 209.65 270.56 214.25 268.61 209.65"/><line class="cls-6" x1="327.56" y1="157.95" x2="327.56" y2="211.12"/><polygon points="325.61 209.65 327.56 210.47 329.5 209.65 327.56 214.25 325.61 209.65"/><text class="cls-8" transform="translate(345.43 27.83)">Day 0</text><text class="cls-8" transform="translate(345.43 97.58)">Day 1</text><text class="cls-8" transform="translate(345.43 169.33)">Day 2</text></svg>